<?xml version="1.0" encoding="utf-8"?>
<!-- Generator: Adobe Illustrator 24.2.1, SVG Export Plug-In . SVG Version: 6.00 Build 0)  -->
<svg version="1.1"
	 id="svg2" xmlns:cc="http://creativecommons.org/ns#" xmlns:dc="http://purl.org/dc/elements/1.1/" xmlns:rdf="http://www.w3.org/1999/02/22-rdf-syntax-ns#" xmlns:svg="http://www.w3.org/2000/svg"
	 xmlns="http://www.w3.org/2000/svg" xmlns:xlink="http://www.w3.org/1999/xlink" x="0px" y="0px" viewBox="0 0 142 142"
	 style="enable-background:new 0 0 142 142;" xml:space="preserve">
<style type="text/css">
	.st0{fill-rule:evenodd;clip-rule:evenodd;}
</style>
<path id="rect2985_4_" class="st0" d="M0,46L0,46z"/>
<path class="st0" d="M127.12,36.56c-12.01,0-21.75-9.74-21.75-21.75c0-5.73,2.21-10.92,5.83-14.81H0v142h142c0,0,0-68.8,0-111.33
	C138.11,34.32,132.87,36.56,127.12,36.56z M105.37,35.59c-2.48,0-4.49-2.01-4.49-4.5c0-2.48,2.01-4.49,4.49-4.49
	c2.49,0,4.5,2.01,4.5,4.49C109.87,33.58,107.86,35.59,105.37,35.59z"/>
<path id="rect2985_2_" class="st0" d="M0,96L0,96z"/>
</svg>
